<!-- Icons for the Danu marketplace. Written for Danu, 2022. Taken from https://fontawesome.com -->

<svg version="1.1" xmlns="http://www.w3.org/2000/svg">
	<defs>
		<!-- viewBox="0 0 512 512" -->
		<path id="arrows-rotate" d="M464 16c-17.67 0-32 14.31-32 32v74.09C392.1 66.52 327.4 32 256 32C161.5 32 78.59 92.34 49.58 182.2c-5.438 16.81 3.797 34.88 20.61 40.28c16.89 5.5 34.88-3.812 40.3-20.59C130.9 138.5 189.4 96 256 96c50.5 0 96.26 24.55 124.4 64H336c-17.67 0-32 14.31-32 32s14.33 32 32 32h128c17.67 0 32-14.31 32-32V48C496 30.31 481.7 16 464 16zM441.8 289.6c-16.92-5.438-34.88 3.812-40.3 20.59C381.1 373.5 322.6 416 256 416c-50.5 0-96.25-24.55-124.4-64H176c17.67 0 32-14.31 32-32s-14.33-32-32-32h-128c-17.67 0-32 14.31-32 32v144c0 17.69 14.33 32 32 32s32-14.31 32-32v-74.09C119.9 445.5 184.6 480 255.1 480c94.45 0 177.4-60.34 206.4-150.2C467.9 313 458.6 294.1 441.8 289.6z"/>

		<!-- viewBox = "0 0 320 512" -->
		<path id="ethereum" d="M311.9 260.8L160 353.6 8 260.8 160 0l151.9 260.8zM160 383.4L8 290.6 160 512l152-221.4-152 92.8z"/>

		<!-- viewBox="0 0 576 512" -->
		<path id="eye" d="M279.6 160.4C282.4 160.1 285.2 160 288 160C341 160 384 202.1 384 256C384 309 341 352 288 352C234.1 352 192 309 192 256C192 253.2 192.1 250.4 192.4 247.6C201.7 252.1 212.5 256 224 256C259.3 256 288 227.3 288 192C288 180.5 284.1 169.7 279.6 160.4zM480.6 112.6C527.4 156 558.7 207.1 573.5 243.7C576.8 251.6 576.8 260.4 573.5 268.3C558.7 304 527.4 355.1 480.6 399.4C433.5 443.2 368.8 480 288 480C207.2 480 142.5 443.2 95.42 399.4C48.62 355.1 17.34 304 2.461 268.3C-.8205 260.4-.8205 251.6 2.461 243.7C17.34 207.1 48.62 156 95.42 112.6C142.5 68.84 207.2 32 288 32C368.8 32 433.5 68.84 480.6 112.6V112.6zM288 112C208.5 112 144 176.5 144 256C144 335.5 208.5 400 288 400C367.5 400 432 335.5 432 256C432 176.5 367.5 112 288 112z"/>

		<!-- viewBox="0 0 384 512" -->
		<path id="file" d="M0 64C0 28.65 28.65 0 64 0H224V128C224 145.7 238.3 160 256 160H384V448C384 483.3 355.3 512 320 512H64C28.65 512 0 483.3 0 448V64zM256 128V0L384 128H256z"/>

		<!-- viewBox="0 0 576 448" -->
		<path id="frog" d="M 446.53,65.43 C 439.67,28.23 407.19,-0.00 368.00,-0.00 328.77,-0.00 296.28,28.29 289.46,65.54 126.75,80.96 -0.50,218.12 0.00,384.98 0.11,419.90 29.08,448.00 64.00,448.00 64.00,448.00 368.00,448.00 368.00,448.00 376.84,448.00 384.00,440.84 384.00,432.00 384.00,414.33 369.67,400.00 352.00,400.00 352.00,400.00 272.51,400.00 272.51,400.00 272.51,400.00 308.31,351.67 308.31,351.67 332.45,315.44 318.66,263.39 274.60,245.07 250.71,235.14 223.05,240.42 202.36,255.95 202.36,255.95 169.60,280.54 169.60,280.54 162.54,285.85 152.51,284.45 147.19,277.35 141.89,270.27 143.31,260.24 150.38,254.94 150.38,254.94 185.16,228.85 185.16,228.85 222.00,201.19 273.44,201.23 310.29,228.85 321.16,237.00 356.16,267.91 351.09,322.06 351.09,322.06 469.62,448.00 469.62,448.00 469.62,448.00 560.00,448.00 560.00,448.00 568.84,448.00 576.00,440.84 576.00,432.00 576.00,414.33 561.67,400.00 544.00,400.00 544.00,400.00 490.37,400.00 490.37,400.00 490.37,400.00 391.85,295.32 391.85,295.32 391.85,295.32 546.29,208.67 546.29,208.67 564.02,198.72 576.00,179.73 576.00,157.94 576.00,157.94 576.00,157.94 576.00,157.94 576.00,136.54 564.28,116.99 545.52,106.71 504.96,84.49 446.53,65.43 446.53,65.43 446.53,65.43 446.53,65.43 446.53,65.43 Z M 368.00,104.00 C 354.74,104.00 344.00,93.25 344.00,80.00 344.00,66.74 354.74,56.00 368.00,56.00 381.25,56.00 392.00,66.74 392.00,80.00 392.00,93.25 381.25,104.00 368.00,104.00 Z"/>

		<!-- viewBox="0 0 512 512", unfortunately, the NFT icons are paid -->
		<path id="image" d="M447.1 32h-384C28.64 32-.0091 60.65-.0091 96v320c0 35.35 28.65 64 63.1 64h384c35.35 0 64-28.65 64-64V96C511.1 60.65 483.3 32 447.1 32zM111.1 96c26.51 0 48 21.49 48 48S138.5 192 111.1 192s-48-21.49-48-48S85.48 96 111.1 96zM446.1 407.6C443.3 412.8 437.9 416 432 416H82.01c-6.021 0-11.53-3.379-14.26-8.75c-2.73-5.367-2.215-11.81 1.334-16.68l70-96C142.1 290.4 146.9 288 152 288s9.916 2.441 12.93 6.574l32.46 44.51l93.3-139.1C293.7 194.7 298.7 192 304 192s10.35 2.672 13.31 7.125l128 192C448.6 396 448.9 402.3 446.1 407.6z"/>

		<!-- viewBox="0 0 512 512" -->
		<path id="life-ring" d="M470.6 425.4C483.1 437.9 483.1 458.1 470.6 470.6C458.1 483.1 437.9 483.1 425.4 470.6L412.1 458.2C369.6 491.9 315.2 512 255.1 512C196.8 512 142.4 491.9 99.02 458.2L86.63 470.6C74.13 483.1 53.87 483.1 41.37 470.6C28.88 458.1 28.88 437.9 41.37 425.4L53.76 412.1C20.07 369.6 0 315.2 0 255.1C0 196.8 20.07 142.4 53.76 99.02L41.37 86.63C28.88 74.13 28.88 53.87 41.37 41.37C53.87 28.88 74.13 28.88 86.63 41.37L99.02 53.76C142.4 20.07 196.8 0 255.1 0C315.2 0 369.6 20.07 412.1 53.76L425.4 41.37C437.9 28.88 458.1 28.88 470.6 41.37C483.1 53.87 483.1 74.13 470.6 86.63L458.2 99.02C491.9 142.4 512 196.8 512 255.1C512 315.2 491.9 369.6 458.2 412.1L470.6 425.4zM309.3 354.5C293.4 363.1 275.3 368 255.1 368C236.7 368 218.6 363.1 202.7 354.5L144.8 412.5C176.1 434.9 214.5 448 255.1 448C297.5 448 335.9 434.9 367.2 412.5L309.3 354.5zM448 255.1C448 214.5 434.9 176.1 412.5 144.8L354.5 202.7C363.1 218.6 368 236.7 368 256C368 275.3 363.1 293.4 354.5 309.3L412.5 367.2C434.9 335.9 448 297.5 448 256V255.1zM255.1 63.1C214.5 63.1 176.1 77.14 144.8 99.5L202.7 157.5C218.6 148.9 236.7 143.1 255.1 143.1C275.3 143.1 293.4 148.9 309.3 157.5L367.2 99.5C335.9 77.14 297.5 63.1 256 63.1H255.1zM157.5 309.3C148.9 293.4 143.1 275.3 143.1 255.1C143.1 236.7 148.9 218.6 157.5 202.7L99.5 144.8C77.14 176.1 63.1 214.5 63.1 255.1C63.1 297.5 77.14 335.9 99.5 367.2L157.5 309.3zM255.1 207.1C229.5 207.1 207.1 229.5 207.1 255.1C207.1 282.5 229.5 303.1 255.1 303.1C282.5 303.1 304 282.5 304 255.1C304 229.5 282.5 207.1 255.1 207.1z"/>

		<!-- viewBox="0 0 576 512" -->
		<path id="piggy-bank" d="M400 96L399.1 96.66C394.7 96.22 389.4 96 384 96H256C239.5 96 223.5 98.08 208.2 102C208.1 100 208 98.02 208 96C208 42.98 250.1 0 304 0C357 0 400 42.98 400 96zM384 128C387.5 128 390.1 128.1 394.4 128.3C398.7 128.6 402.9 129 407 129.6C424.6 109.1 450.8 96 480 96H512L493.2 171.1C509.1 185.9 521.9 203.9 530.7 224H544C561.7 224 576 238.3 576 256V352C576 369.7 561.7 384 544 384H512C502.9 396.1 492.1 406.9 480 416V480C480 497.7 465.7 512 448 512H416C398.3 512 384 497.7 384 480V448H256V480C256 497.7 241.7 512 224 512H192C174.3 512 160 497.7 160 480V416C125.1 389.8 101.3 349.8 96.79 304H68C30.44 304 0 273.6 0 236C0 198.4 30.44 168 68 168H72C85.25 168 96 178.7 96 192C96 205.3 85.25 216 72 216H68C56.95 216 48 224.1 48 236C48 247 56.95 256 68 256H99.2C111.3 196.2 156.9 148.5 215.5 133.2C228.4 129.8 241.1 128 256 128H384zM424 240C410.7 240 400 250.7 400 264C400 277.3 410.7 288 424 288C437.3 288 448 277.3 448 264C448 250.7 437.3 240 424 240z"/>

		<!-- viewBox="0 0 448 512" -->
		<path id="plus" d="M432 256c0 17.69-14.33 32.01-32 32.01H256v144c0 17.69-14.33 31.99-32 31.99s-32-14.3-32-31.99v-144H48c-17.67 0-32-14.32-32-32.01s14.33-31.99 32-31.99H192v-144c0-17.69 14.33-32.01 32-32.01s32 14.32 32 32.01v144h144C417.7 224 432 238.3 432 256z"/>

		<!-- viewBox="0 0 576 512" -->
		<path id="sort-down-wide-short" d="M416 288h-95.1c-17.67 0-32 14.33-32 32s14.33 32 32 32H416c17.67 0 32-14.33 32-32S433.7 288 416 288zM544 32h-223.1c-17.67 0-32 14.33-32 32s14.33 32 32 32H544c17.67 0 32-14.33 32-32S561.7 32 544 32zM352 416h-32c-17.67 0-32 14.33-32 32s14.33 32 32 32h32c17.67 0 31.1-14.33 31.1-32S369.7 416 352 416zM480 160h-159.1c-17.67 0-32 14.33-32 32s14.33 32 32 32H480c17.67 0 32-14.33 32-32S497.7 160 480 160zM192.4 330.7L160 366.1V64.03C160 46.33 145.7 32 128 32S96 46.33 96 64.03v302L63.6 330.7c-6.312-6.883-14.94-10.38-23.61-10.38c-7.719 0-15.47 2.781-21.61 8.414c-13.03 11.95-13.9 32.22-1.969 45.27l87.1 96.09c12.12 13.26 35.06 13.26 47.19 0l87.1-96.09c11.94-13.05 11.06-33.31-1.969-45.27C224.6 316.8 204.4 317.7 192.4 330.7z"/>

		<!-- viewBox="0 0 576 512" -->
		<path id="store" d="M495.5 223.2C491.6 223.7 487.6 224 483.4 224C457.4 224 434.2 212.6 418.3 195C402.4 212.6 379.2 224 353.1 224C327 224 303.8 212.6 287.9 195C272 212.6 248.9 224 222.7 224C196.7 224 173.5 212.6 157.6 195C141.7 212.6 118.5 224 92.36 224C88.3 224 84.21 223.7 80.24 223.2C24.92 215.8-1.255 150.6 28.33 103.8L85.66 13.13C90.76 4.979 99.87 0 109.6 0H466.4C476.1 0 485.2 4.978 490.3 13.13L547.6 103.8C577.3 150.7 551 215.8 495.5 223.2H495.5zM499.7 254.9C503.1 254.4 508 253.6 512 252.6V448C512 483.3 483.3 512 448 512H128C92.66 512 64 483.3 64 448V252.6C67.87 253.6 71.86 254.4 75.97 254.9L76.09 254.9C81.35 255.6 86.83 256 92.36 256C104.8 256 116.8 254.1 128 250.6V384H448V250.7C459.2 254.1 471.1 256 483.4 256C489 256 494.4 255.6 499.7 254.9L499.7 254.9z"/>

		<!-- viewBox="0 0 448 512" -->
		<path id="trash-can" d="M135.2 17.69C140.6 6.848 151.7 0 163.8 0H284.2C296.3 0 307.4 6.848 312.8 17.69L320 32H416C433.7 32 448 46.33 448 64C448 81.67 433.7 96 416 96H32C14.33 96 0 81.67 0 64C0 46.33 14.33 32 32 32H128L135.2 17.69zM31.1 128H416V448C416 483.3 387.3 512 352 512H95.1C60.65 512 31.1 483.3 31.1 448V128zM111.1 208V432C111.1 440.8 119.2 448 127.1 448C136.8 448 143.1 440.8 143.1 432V208C143.1 199.2 136.8 192 127.1 192C119.2 192 111.1 199.2 111.1 208zM207.1 208V432C207.1 440.8 215.2 448 223.1 448C232.8 448 240 440.8 240 432V208C240 199.2 232.8 192 223.1 192C215.2 192 207.1 199.2 207.1 208zM304 208V432C304 440.8 311.2 448 320 448C328.8 448 336 440.8 336 432V208C336 199.2 328.8 192 320 192C311.2 192 304 199.2 304 208z"/>

		<!-- viewBox="0 0 512 512" -->
		<path id="wallet" d="M448 32C465.7 32 480 46.33 480 64C480 81.67 465.7 96 448 96H80C71.16 96 64 103.2 64 112C64 120.8 71.16 128 80 128H448C483.3 128 512 156.7 512 192V416C512 451.3 483.3 480 448 480H64C28.65 480 0 451.3 0 416V96C0 60.65 28.65 32 64 32H448zM416 336C433.7 336 448 321.7 448 304C448 286.3 433.7 272 416 272C398.3 272 384 286.3 384 304C384 321.7 398.3 336 416 336z"/>

		<!-- viewBox="0 0 320 512" -->
		<path id="xmark" d="M310.6 361.4c12.5 12.5 12.5 32.75 0 45.25C304.4 412.9 296.2 416 288 416s-16.38-3.125-22.62-9.375L160 301.3L54.63 406.6C48.38 412.9 40.19 416 32 416S15.63 412.9 9.375 406.6c-12.5-12.5-12.5-32.75 0-45.25l105.4-105.4L9.375 150.6c-12.5-12.5-12.5-32.75 0-45.25s32.75-12.5 45.25 0L160 210.8l105.4-105.4c12.5-12.5 32.75-12.5 45.25 0s12.5 32.75 0 45.25l-105.4 105.4L310.6 361.4z"/>
	</defs>
</svg>


